<?xml version="1.0" encoding="utf-8" ?>
<svg baseProfile="full" height="300mm" version="1.1" viewBox="0,0,200,300" width="200mm" xmlns="http://www.w3.org/2000/svg" xmlns:ev="http://www.w3.org/2001/xml-events" xmlns:xlink="http://www.w3.org/1999/xlink"><defs /><rect fill="#222222" height="300" width="200" x="0" y="0" /><text fill="#FFFFFF" style="font-size:12px; font-family:Arial; font-weight:bold;" x="10" y="20">Over 10km Runs</text><text fill="#FFFFFF" style="font-size:4px; font-family:Arial" x="10" y="280">ATHLETE</text><text fill="#FFFFFF" style="font-size:9px; font-family:Arial" x="10" y="290">fengzhao</text><text fill="#FFFFFF" style="font-size:4px; font-family:Arial" x="120" y="280">STATISTICS</text><text fill="#FFFFFF" style="font-size:3px; font-family:Arial" x="120" y="285">Number: 5</text><text fill="#FFFFFF" style="font-size:3px; font-family:Arial" x="120" y="290">Weekly: 1.0</text><text fill="#FFFFFF" style="font-size:3px; font-family:Arial" x="141" y="285">Total: 92.1 km</text><text fill="#FFFFFF" style="font-size:3px; font-family:Arial" x="141" y="290">Avg: 18.4 km</text><text fill="#FFFFFF" style="font-size:3px; font-family:Arial" x="167" y="285">Min: 10.0 km</text><text fill="#FFFFFF" style="font-size:3px; font-family:Arial" x="167" y="290">Max: 38.3 km</text><polyline fill="none" points="76.76563843921758,44.64069957472384 77.92719745403156,48.415217074303655 80.34987768460996,51.65049487166107 84.79698934091721,60.673213420115644 84.92973894276656,62.36270816918113 80.34987768460996,64.627341019921 76.99795024213381,68.50954465536051 75.86957862786949,72.3917178393749 75.47132982278708,79.9043553940719 74.21020860678982,83.46293338647229 72.38490158354398,85.69152475852752 65.01729869027622,91.90996053311392 63.988489277195185,91.87401604204206 54.43051795614883,84.90073542008759 52.40608653053641,83.96616457321215 51.808713322971016,84.2896700660931 50.44802990567405,83.930219505477 41.52061919250991,77.20844594380469 36.44294692808762,70.8819874416804 33.78795489447657,64.98680559877539 32.36089667631313,65.16653779041371 31.697148668114096,63.944357600732474 31.000213259248994,64.19598318060162 30.933838458382525,65.63384118286194 31.66396126768086,66.89196350809652 31.332087263348512,68.2219750600052 43.97648682363797,89.9330096518097 42.748553008190356,93.34773803356802 36.111072923988104,102.80102112150053 34.68401470594108,105.281130142248 34.816764307557605,105.92811306117801 34.717202106141485,104.95763836579863 42.184367201058194,93.67123739578528 43.74417502072174,89.68139715516008 31.896273070480675,69.73171357155661 31.53121166594792,67.97035152697936 29.208093636552803,64.088143662113 28.77665743092075,62.39865480325534 25.889353594509885,58.51640323124593 15.070261057233438,34.0 21.973240344785154,48.918483898742124 22.76973795494996,52.11781102741952 24.49548277677968,55.78443016434903 35.74601151945535,76.63331669417676 43.9101120227715,89.89706501725595 42.018430198775604,94.21040252965759 37.13988233706914,101.18355202369276 34.68401470594108,105.31707365997136 34.783576907240786,106.0 34.68401470594108,104.95763836579863 41.985242798458785,94.13851387897739 43.710987620288506,90.00489891311736 40.72412158246152,84.72101039427798" stroke="#4dd2ff" stroke-linecap="round" stroke-linejoin="round" stroke-width="0.5"><title>2020-12-05 10.5km</title></polyline><polyline fill="none" points="163.86082574140164,57.61131185492559 163.62357045937097,58.20063419601502 162.02791238611098,58.44240601909405 161.79996123278397,58.40211077362983 161.25566970341606,58.45751673011182 160.49738321377663,58.32655712544147 157.64101570070488,58.462553633056814 149.09052141886787,60.05419668869945 145.61077728241798,60.57802061213806 144.51754215930123,60.855041284161416 140.25159914710093,61.57025318958404 137.78135297534754,62.09910233310438 136.73929056015913,62.230054833180475 135.58557860049768,62.119248887622234 133.74336111647426,61.59543657333052 133.1618530722626,61.499739666611276 131.77088583057048,61.42922607211949 131.19868191506248,61.524923075885454 128.49583252565935,61.338565631307574 127.1606900561892,60.769416830637056 126.13258383405628,60.195226594718406 120.9967047877144,58.08982182946056 120.62453963942244,57.98404622388989 119.70808296179166,57.87323351212763 117.44717968595796,57.91352906411339 117.14014343862073,57.75234671603175 117.10757898812881,57.39975902680453 117.42857142855064,57.40983298559877 117.54487303737551,57.51057249324367 117.61930606706301,58.05456331215828 117.56813335916377,58.613660551760404 117.36809459194774,59.157642739941366 116.00038767201477,61.55010647603922 115.73056793949218,62.305604240282264 115.5677456871199,64.83394373784176 114.73502616782207,71.87453248663951 114.0465206434892,75.47513058055483 114.02326032175915,76.0139453258671 114.23725528200157,76.54772030812092 114.27447179684532,76.96063777045856 114.09304128706572,77.74114579756497 114.13025780188036,79.47333881443774 114.0,81.39179301151307 114.09304128706572,82.6002409731991 114.15351812363951,82.47939712033985 114.08838922268478,80.89833739940877 114.22795115329791,78.92951541397997 114.17677844539867,77.68071968207005 114.34425276212278,76.89013984046323 114.29308005425264,76.52254233486747 114.14886605925858,76.19019223475698 114.12560573749943,75.82762667994393 114.79550300442497,72.17668773687183 115.28862182592275,67.83559801552474 115.66543903853744,65.30736761198932 115.80500096915057,62.4768492592375 115.89339019186446,62.03362599060347 117.15875169602805,59.68651023160055 117.85190928471275,58.099895688257675 119.74064741228358,58.05456331215828 120.77805776312016,58.240929558247444 121.69451444075094,58.65395567462474 126.19771273501101,60.4168444405841 127.99806163983885,61.32849224169695 128.6400465206243,61.509813031410886 133.33863151769037,61.62061994794567 135.4692769916437,62.23509146286233 136.51599147118395,62.36604370689747 138.26051560376072,62.15954197915562 157.72940492341877,58.563291615348135 162.25121147508617,58.47766433970901 162.79085094007314,58.39707386629743 164.3818569489813,58.63884500628774 165.27970536923385,58.452479826810304 166.7171932544734,58.497811943459965 167.08470633841353,58.387000050559436 167.36383019961067,58.45751673011182 167.73599534790264,58.387000050559436 167.8941655359231,58.44240601909405 168.2849389416515,58.4121845871814 168.6198875750997,58.50284884349094 168.8617949214531,58.432332209922606 169.1455708470603,58.51795954138652 169.35026167859905,58.472627437859046 169.68055824772455,58.533070235997 170.36441170767648,58.30640947205757 173.49990308197448,58.10996954560687 174.93273890286218,58.13515418257157 176.03062609033077,57.99915703453735 177.5285908121732,58.064637176063115 177.77980228725937,58.004193970700726 178.0263616979646,58.059600244294415 179.21263810814708,57.943750712784095 179.50571816239972,58.02434171165805 179.88718743942445,57.91352906411339 180.4361310331151,57.99915703453735 181.0083349486231,57.8883443468585 181.1897654584027,57.953824592754245 182.0038767202641,57.963898471251014 184.59507656522328,57.89841823485767 184.916069005616,57.792642338092264 185.5022291141504,57.90345517831156 186.0,57.80775319034001 185.3673192479182,57.83797488498385" stroke="#ff0000" stroke-linecap="round" stroke-linejoin="round" stroke-width="0.5"><title>2019-12-15 38.3km</title></polyline><polyline fill="none" points="44.27965401194524,133.58561668900074 35.8306372363586,114.0 46.416564869577996,137.92995652597165 58.284639017190784,159.57986305374652 64.23511386686005,169.12261041399324 63.15022066223901,172.61207614134764 55.72034598805476,183.93486537001445 55.12858605815563,185.1098568290763 55.35871491988655,185.75076007496682 55.81897264311556,183.68562439561356 63.05159400741104,172.89692939029192 64.20223831525072,169.2294311618316 57.16687026096042,157.69265594682656 45.068667251616716,135.40169786143815 35.69913502980489,114.03561092235032 44.871413941611536,134.90316644485574 57.79150574246887,158.5828488834959 64.30086497007869,169.30064498071442 62.68996293912642,173.64466838151566 57.16687026096042,181.54926799118402 55.391590471495874,184.61137594783213 55.35871491988655,185.67954864457715 55.26008826494217,184.8962222277769 56.607985882787034,182.2613878265838 63.15022066223901,172.5408628032892 64.1693627636414,169.08700349295395 57.002492502564564,157.5502249270503 44.345405115163885,134.1553683693346 35.63338392635342,114.1780545860529 40.20308560656849,123.61485508011538 44.70703618333209,134.83194762974745 57.75863019062672,158.7964949478046 64.20223831525072,169.1582173325296 63.15022066223901,172.96814267666196 56.34498146944679,182.93790071259718 55.12858605815563,185.07425106869778 55.325839368160814,186.0 55.391590471495874,184.61137594783213 63.117345110629685,172.8613227432361 64.23511386686005,169.51428637557547 56.41073257289827,156.51759879590827 46.6466937311925,138.42848486438743 35.76488613313995,114.53416356409434 42.175618705921806,128.38660201331368 44.31252956355456,134.1553683693346 56.37785702117253,156.5532066297892 64.36661607364658,169.79914142386406 62.06532745750155,174.64165192988003 55.09571050654631,185.00303954002447 55.4244660231052,185.9287886057282 55.16146160999779,185.21667409490328 55.58884378138464,184.148500390118 63.05159400741104,173.21738909758278 64.1693627636414,169.6211070380814 51.808155340957455,147.97164389104" stroke="#4dd2ff" stroke-linecap="round" stroke-linejoin="round" stroke-width="0.5"><title>2019-11-10 19.8km</title></polyline><polyline fill="none" points="138.16254583536647,118.6431751716882 135.88738055026624,114.32145200195373 138.29443947505206,118.71460829325952 145.02101510064676,135.10823516748496 157.48496405384503,157.85839777768706 164.31045990937855,169.10808929687482 163.4201778412098,172.50080290436745 156.8254958554171,182.17883629424614 155.3087189985672,184.7143781411287 155.4735860483488,185.75001823506318 155.3746658185264,184.60724283449235 163.4531512511894,172.42937759586493 164.40938013920095,169.10808929687482 157.55091087392066,158.25124848430278 145.8453503488563,136.5725630427478 135.78846032044385,114.0 144.98804169066716,134.8225121467549 158.40821953199338,159.6083666923805 164.24451308941934,169.25094086801982 163.354231021367,172.64365349026048 156.46278834610712,182.7502271469275 155.2427721787244,184.8572251802252 155.4406126382528,185.78572992354748 155.4735860483488,184.42868393842946 162.49692236317787,174.0364445282321 164.31045990937855,170.3937519439787 164.37640672910493,169.28665375435958 156.7595490354579,156.82269895612262 145.8783237588359,136.67970881360816 141.98746138706338,127.32222346309572 135.59061986079905,114.17858447149047 140.73447180981748,124.39350824680878 144.5923607716104,133.96534208825324 155.143851948902,153.71558940433897 164.37640672910493,169.32236663807998 163.09044374187943,172.96506715670694 155.6714265078772,184.03585413875408 155.20979876886122,185.00007217779057 155.4406126382528,186.0 155.3746658185264,184.89293693343643 157.28712359443307,181.4645967950928 163.18936397181824,172.85792929126183 164.37640672910493,169.07237639758387" stroke="#4dd2ff" stroke-linecap="round" stroke-linejoin="round" stroke-width="0.5"><title>2018-12-15 13.4km</title></polyline><polyline fill="none" points="43.672244291054085,212.56323027904727 41.89256299799308,207.63690291249077 35.56480728928,194.0 42.48579009564128,208.92203655216144 44.891655547427945,215.24056139492313 58.63474997738376,240.47815262613585 64.43519271060359,249.29494060116122 62.72142553923186,253.36417402719962 54.91060208634008,265.2861201817286 55.404958001105115,265.7858361633844 55.6356574279489,265.4645902334305 56.756197501323186,262.1093424220744 62.886210844269954,253.07861488565686 64.00675091764424,249.47341645765118 56.03114215983078,234.4455223691475 52.735436061397195,229.98347010707948 44.66095612058416,216.0616066812363 42.0903053637594,208.17237567075063 38.662771021714434,201.03269091271795 36.685347362654284,198.10539017402334 35.72959259408526,194.5711867742648 41.03567941254005,205.4950060438714 44.75982730346732,214.8478870773979 52.70247900031973,228.69839154259535 53.493448464083485,231.12575934376218 57.613081086892635,238.6933584867802 64.07266503956635,248.9379886938259 63.38056675903499,252.00776662750286 56.95393986720592,261.5739284189185 55.075387391261756,265.35750821011607 55.569743306026794,266.0 56.756197501323186,262.3592020906508 63.314652637112886,253.32847914355807 64.03970797872171,249.25924542205757 61.69975664885715,244.76163212157553 55.20721563510597,234.73109233475407 47.92370515782386,220.7379688952933 46.111066803801805,218.2034574932477 44.990526730543934,215.27625904456363" stroke="#4dd2ff" stroke-linecap="round" stroke-linejoin="round" stroke-width="0.5"><title>2018-08-07 10.0km</title></polyline></svg>