<?xml version="1.0" encoding="utf-8" ?>
<svg baseProfile="full" height="300mm" version="1.1" viewBox="0,0,200,300" width="200mm" xmlns="http://www.w3.org/2000/svg" xmlns:ev="http://www.w3.org/2001/xml-events" xmlns:xlink="http://www.w3.org/1999/xlink"><defs /><rect fill="#222222" height="300" width="200" x="0" y="0" /><text fill="#FFFFFF" style="font-size:12px; font-family:Arial; font-weight:bold;" x="10" y="20">Over 10km Runs</text><text fill="#FFFFFF" style="font-size:4px; font-family:Arial" x="10" y="280">ATHLETE</text><text fill="#FFFFFF" style="font-size:9px; font-family:Arial" x="10" y="290">fengzhao</text><text fill="#FFFFFF" style="font-size:4px; font-family:Arial" x="120" y="280">STATISTICS</text><text fill="#FFFFFF" style="font-size:3px; font-family:Arial" x="120" y="285">Number: 6</text><text fill="#FFFFFF" style="font-size:3px; font-family:Arial" x="120" y="290">Weekly: 1.0</text><text fill="#FFFFFF" style="font-size:3px; font-family:Arial" x="141" y="285">Total: 107.3 km</text><text fill="#FFFFFF" style="font-size:3px; font-family:Arial" x="141" y="290">Avg: 17.9 km</text><text fill="#FFFFFF" style="font-size:3px; font-family:Arial" x="167" y="285">Min: 10.0 km</text><text fill="#FFFFFF" style="font-size:3px; font-family:Arial" x="167" y="290">Max: 38.3 km</text><polyline fill="none" points="54.91807473113295,34.0 55.98235058411956,35.92897514869401 56.31843769561965,37.16641919100948 56.25122027331963,48.70332460573991 56.56490157736698,49.23708436098241 56.374452214164194,49.8193657885422 56.36324931040872,50.78983033193799 56.66572771081701,51.6996357300668 58.45819230529014,54.19854244045564 58.850293935334776,55.071937928078114 59.141569431871176,56.15154549575527 59.175178143021185,57.219015794529696 57.74120646744268,62.580525014549494 57.853235504589975,65.20056660815317 57.696394852595404,65.37038270395715 57.77481517859269,65.71001437887026 57.53955420060083,66.94723822570813 57.181061281648,67.85695581007167 53.68575532239629,74.10354974218353 53.159218847809825,75.55903330496221 52.93516077345703,77.45114302751608 53.0583927143598,78.68828013581515 52.86794335121522,78.9187262346677 52.69989979546517,79.98605140014843 52.90155206236523,80.60461173561634 52.47584172117058,87.38436845278193 52.22937783942325,87.96651724132244 51.96050815022318,89.70082351921883 52.24058074312052,90.88935871457215 51.89329072792316,91.67766822499107 51.870884920528624,92.16277992670075 51.98291395767592,92.92682800928014 52.59907366207335,94.22448899288429 52.711102699220646,94.95214496078552 52.36381268396508,95.81320044169843 51.50118909787852,96.64999660024478 51.4003629644867,97.12296649400378 52.1733633208205,98.65101395273814 52.12855170597322,99.43928695708746 50.81781197123928,101.42814390848798 50.761797452694736,103.01678708271356 49.01414447306888,102.65297699780785 47.96107152372133,102.95615212339908 47.55776698997943,104.22948166380229 47.51295537513215,104.90858679769735 47.17686826369027,105.30877246348246 45.832519817806315,105.22388467479323 44.91388171311701,105.87873221727205 44.320127816230524,105.98787322566204 43.155025829793885,105.68470358241757 42.39322837715736,105.69683037867071 41.62022802076535,105.26026516091952 40.824821856978815,103.95056268690678 41.03767702751793,102.74999309766281 42.60608354769647,101.5009065202612 43.43509842263302,97.87486460342188 44.286519105080515,97.19573097456305 45.01470784662524,97.08658424185705 46.583114366803784,97.42615162137372 46.964013093092944,97.71720882768568 47.18807116744574,98.23868505840073 47.99468023492955,98.76015966676641 48.33076734637143,99.66970451976522 48.823695109866094,100.19117467627802 48.38678186497418,102.74999309766281 47.77062216057675,103.53824682759296 47.501752471434884,105.05410896849935 47.07604213024024,105.33302610949613 45.73169368435629,105.24813833307417 44.96989623171976,105.86660543414473 44.140881356725004,106.0 43.311866481788456,105.68470358241757 42.1915761102573,105.67257678532042 41.586619309615344,105.2360115043848 40.94805379782338,104.30224305973388 40.858430568128824,103.22294578036235 41.09369154612068,102.64084998138424 42.650895162601955,101.48877942051331 42.94217065919656,100.40946402755799 43.02059098519385,99.2331236062455 43.43509842263302,97.87486460342188 43.849605860130396,97.41402422680403 44.611403312766925,97.0502019818232 46.683940500195604,97.48678858100902 47.06483922654297,97.80210041764076 47.1992740710848,98.26293972731219 48.005883138626814,98.73590506977052 48.39798476872966,99.73034066784021 48.91331833956065,100.20330186991487 51.299536831036676,100.71264321058698 52.10614589857869,99.71821343994816 52.251783646817785,99.22099634241022 52.1733633208205,98.51761353907932 51.56840652017854,97.60806243453408 51.42276877188124,97.03807456004142 51.62442103878129,96.4559572833532 52.52065333601786,95.6555427267158 52.711102699220646,95.0491655178048 52.66629108431516,94.32150997116696 52.01652266876772,92.99959431166644 51.88208782422589,92.15065215124923 51.97171105397865,91.45936750106921 52.24058074312052,90.96212590167124 51.93810234282864,89.77359122240159 52.34140687651234,87.46926527709002 52.29659526172327,84.71616062478279 52.531856239715125,84.18251396006963 52.498247528565116,81.50212659235694 52.61027656577062,81.58702639742114 52.87914625485428,77.22069490954163 53.215233366412576,75.29219559865305 53.67455241869902,74.21271144815546 56.99061191850342,68.13593487897015" stroke="#4dd2ff" stroke-linecap="round" stroke-linejoin="round" stroke-width="0.5"><title>2022-03-06 15.1km</title></polyline><polyline fill="none" points="176.76563843921758,44.64069957472384 177.92719745403156,48.415217074303655 180.34987768460996,51.65049487166107 184.7969893409172,60.673213420115644 184.92973894276656,62.36270816918113 180.34987768460996,64.627341019921 176.9979502421338,68.50954465536051 175.8695786278695,72.3917178393749 175.47132982278708,79.9043553940719 174.21020860678982,83.46293338647229 172.38490158354398,85.69152475852752 165.01729869027622,91.90996053311392 163.98848927719519,91.87401604204206 154.43051795614883,84.90073542008759 152.4060865305364,83.96616457321215 151.80871332297102,84.2896700660931 150.44802990567405,83.930219505477 141.5206191925099,77.20844594380469 136.44294692808762,70.8819874416804 133.78795489447657,64.98680559877539 132.36089667631313,65.16653779041371 131.6971486681141,63.944357600732474 131.000213259249,64.19598318060162 130.93383845838252,65.63384118286194 131.66396126768086,66.89196350809652 131.3320872633485,68.2219750600052 143.97648682363797,89.9330096518097 142.74855300819036,93.34773803356802 136.1110729239881,102.80102112150053 134.68401470594108,105.281130142248 134.8167643075576,105.92811306117801 134.71720210614149,104.95763836579863 142.1843672010582,93.67123739578528 143.74417502072174,89.68139715516008 131.89627307048067,69.73171357155661 131.53121166594792,67.97035152697936 129.2080936365528,64.088143662113 128.77665743092075,62.39865480325534 125.88935359450988,58.51640323124593 115.07026105723344,34.0 121.97324034478515,48.918483898742124 122.76973795494996,52.11781102741952 124.49548277677968,55.78443016434903 135.74601151945535,76.63331669417676 143.9101120227715,89.89706501725595 142.0184301987756,94.21040252965759 137.13988233706914,101.18355202369276 134.68401470594108,105.31707365997136 134.78357690724079,106.0 134.68401470594108,104.95763836579863 141.98524279845878,94.13851387897739 143.7109876202885,90.00489891311736 140.72412158246152,84.72101039427798" stroke="#4dd2ff" stroke-linecap="round" stroke-linejoin="round" stroke-width="0.5"><title>2020-12-05 10.5km</title></polyline><polyline fill="none" points="63.86082574140164,137.6113118549256 63.62357045937097,138.20063419601502 62.027912386110984,138.44240601909405 61.79996123278397,138.40211077362983 61.25566970341606,138.45751673011182 60.49738321377663,138.32655712544147 57.641015700704884,138.4625536330568 49.090521418867866,140.05419668869945 45.610777282417985,140.57802061213806 44.51754215930123,140.85504128416142 40.25159914710093,141.57025318958404 37.781352975347545,142.09910233310438 36.739290560159134,142.23005483318047 35.58557860049768,142.11924888762223 33.74336111647426,141.59543657333052 33.1618530722626,141.49973966661128 31.770885830570478,141.4292260721195 31.19868191506248,141.52492307588545 28.495832525659353,141.33856563130757 27.160690056189196,140.76941683063706 26.132583834056277,140.1952265947184 20.996704787714407,138.08982182946056 20.624539639422437,137.9840462238899 19.70808296179166,137.87323351212763 17.447179685957963,137.9135290641134 17.140143438620726,137.75234671603175 17.107578988128807,137.39975902680453 17.42857142855064,137.40983298559877 17.54487303737551,137.51057249324367 17.619306067063008,138.05456331215828 17.568133359163767,138.6136605517604 17.368094591947738,139.15764273994137 16.000387672014767,141.55010647603922 15.730567939492175,142.30560424028226 15.567745687119896,144.83394373784176 14.73502616782207,151.8745324866395 14.046520643489202,155.47513058055483 14.023260321759153,156.0139453258671 14.23725528200157,156.54772030812092 14.274471796845319,156.96063777045856 14.093041287065716,157.74114579756497 14.130257801880362,159.47333881443774 14.0,161.39179301151307 14.093041287065716,162.6002409731991 14.153518123639515,162.47939712033985 14.088389222684782,160.89833739940877 14.227951153297909,158.92951541397997 14.176778445398668,157.68071968207005 14.344252762122778,156.89013984046323 14.293080054252641,156.52254233486747 14.14886605925858,156.19019223475698 14.125605737499427,155.82762667994393 14.795503004424972,152.17668773687183 15.288621825922746,147.83559801552474 15.665439038537443,145.30736761198932 15.80500096915057,142.4768492592375 15.893390191864455,142.03362599060347 17.158751696028048,139.68651023160055 17.851909284712747,138.09989568825767 19.74064741228358,138.05456331215828 20.77805776312016,138.24092955824744 21.694514440750936,138.65395567462474 26.19771273501101,140.4168444405841 27.998061639838852,141.32849224169695 28.64004652062431,141.50981303141089 33.338631517690374,141.62061994794567 35.46927699164371,142.23509146286233 36.51599147118395,142.36604370689747 38.26051560376072,142.15954197915562 57.72940492341877,138.56329161534813 62.251211475086166,138.477664339709 62.79085094007314,138.39707386629743 64.3818569489813,138.63884500628774 65.27970536923385,138.4524798268103 66.71719325447339,138.49781194345996 67.08470633841353,138.38700005055944 67.36383019961067,138.45751673011182 67.73599534790264,138.38700005055944 67.8941655359231,138.44240601909405 68.28493894165149,138.4121845871814 68.61988757509971,138.50284884349094 68.86179492145311,138.4323322099226 69.1455708470603,138.51795954138652 69.35026167859905,138.47262743785905 69.68055824772455,138.533070235997 70.36441170767648,138.30640947205757 73.49990308197448,138.10996954560687 74.93273890286218,138.13515418257157 76.03062609033077,137.99915703453735 77.5285908121732,138.06463717606312 77.77980228725937,138.00419397070073 78.0263616979646,138.05960024429442 79.21263810814708,137.9437507127841 79.50571816239972,138.02434171165805 79.88718743942445,137.9135290641134 80.43613103311509,137.99915703453735 81.00833494862309,137.8883443468585 81.18976545840269,137.95382459275424 82.00387672026409,137.963898471251 84.59507656522328,137.89841823485767 84.91606900561601,137.79264233809226 85.5022291141504,137.90345517831156 86.0,137.80775319034 85.3673192479182,137.83797488498385" stroke="#ff0000" stroke-linecap="round" stroke-linejoin="round" stroke-width="0.5"><title>2019-12-15 38.3km</title></polyline><polyline fill="none" points="144.27965401194524,133.58561668900074 135.8306372363586,114.0 146.416564869578,137.92995652597165 158.28463901719078,159.57986305374652 164.23511386686005,169.12261041399324 163.150220662239,172.61207614134764 155.72034598805476,183.93486537001445 155.12858605815563,185.1098568290763 155.35871491988655,185.75076007496682 155.81897264311556,183.68562439561356 163.05159400741104,172.89692939029192 164.20223831525072,169.2294311618316 157.16687026096042,157.69265594682656 145.06866725161672,135.40169786143815 135.6991350298049,114.03561092235032 144.87141394161154,134.90316644485574 157.79150574246887,158.5828488834959 164.3008649700787,169.30064498071442 162.68996293912642,173.64466838151566 157.16687026096042,181.54926799118402 155.39159047149587,184.61137594783213 155.35871491988655,185.67954864457715 155.26008826494217,184.8962222277769 156.60798588278703,182.2613878265838 163.150220662239,172.5408628032892 164.1693627636414,169.08700349295395 157.00249250256456,157.5502249270503 144.34540511516389,134.1553683693346 135.63338392635342,114.1780545860529 140.2030856065685,123.61485508011538 144.7070361833321,134.83194762974745 157.75863019062672,158.7964949478046 164.20223831525072,169.1582173325296 163.150220662239,172.96814267666196 156.3449814694468,182.93790071259718 155.12858605815563,185.07425106869778 155.3258393681608,186.0 155.39159047149587,184.61137594783213 163.11734511062969,172.8613227432361 164.23511386686005,169.51428637557547 156.41073257289827,156.51759879590827 146.6466937311925,138.42848486438743 135.76488613313995,114.53416356409434 142.1756187059218,128.38660201331368 144.31252956355456,134.1553683693346 156.37785702117253,156.5532066297892 164.36661607364658,169.79914142386406 162.06532745750155,174.64165192988003 155.0957105065463,185.00303954002447 155.4244660231052,185.9287886057282 155.1614616099978,185.21667409490328 155.58884378138464,184.148500390118 163.05159400741104,173.21738909758278 164.1693627636414,169.6211070380814 151.80815534095746,147.97164389104" stroke="#4dd2ff" stroke-linecap="round" stroke-linejoin="round" stroke-width="0.5"><title>2019-11-10 19.8km</title></polyline><polyline fill="none" points="38.16254583536647,198.6431751716882 35.88738055026624,194.32145200195373 38.29443947505206,198.71460829325952 45.021015100646764,215.10823516748496 57.48496405384503,237.85839777768706 64.31045990937855,249.10808929687482 63.42017784120981,252.50080290436745 56.8254958554171,262.17883629424614 55.3087189985672,264.7143781411287 55.47358604834881,265.7500182350632 55.37466581852641,264.60724283449235 63.45315125118941,252.42937759586493 64.40938013920095,249.10808929687482 57.55091087392066,238.25124848430278 45.8453503488563,216.5725630427478 35.788460320443846,194.0 44.98804169066716,214.8225121467549 58.40821953199338,239.6083666923805 64.24451308941934,249.25094086801982 63.35423102136701,252.64365349026048 56.46278834610712,262.7502271469275 55.24277217872441,264.8572251802252 55.44061263825279,265.7857299235475 55.47358604834881,264.42868393842946 62.49692236317787,254.0364445282321 64.31045990937855,250.3937519439787 64.37640672910493,249.28665375435958 56.759549035457894,236.82269895612262 45.878323758835904,216.67970881360816 41.98746138706338,207.32222346309572 35.59061986079905,194.17858447149047 40.73447180981748,204.39350824680878 44.5923607716104,213.96534208825324 55.14385194890201,233.71558940433897 64.37640672910493,249.32236663807998 63.090443741879426,252.96506715670694 55.671426507877186,264.0358541387541 55.20979876886122,265.00007217779057 55.44061263825279,266.0 55.37466581852641,264.89293693343643 57.28712359443307,261.4645967950928 63.18936397181824,252.85792929126183 64.37640672910493,249.07237639758387" stroke="#4dd2ff" stroke-linecap="round" stroke-linejoin="round" stroke-width="0.5"><title>2018-12-15 13.4km</title></polyline><polyline fill="none" points="143.67224429105408,212.56323027904727 141.89256299799308,207.63690291249077 135.56480728928,194.0 142.48579009564128,208.92203655216144 144.89165554742794,215.24056139492313 158.63474997738376,240.47815262613585 164.4351927106036,249.29494060116122 162.72142553923186,253.36417402719962 154.91060208634008,265.2861201817286 155.40495800110511,265.7858361633844 155.6356574279489,265.4645902334305 156.7561975013232,262.1093424220744 162.88621084426995,253.07861488565686 164.00675091764424,249.47341645765118 156.03114215983078,234.4455223691475 152.7354360613972,229.98347010707948 144.66095612058416,216.0616066812363 142.0903053637594,208.17237567075063 138.66277102171443,201.03269091271795 136.68534736265428,198.10539017402334 135.72959259408526,194.5711867742648 141.03567941254005,205.4950060438714 144.75982730346732,214.8478870773979 152.70247900031973,228.69839154259535 153.49344846408349,231.12575934376218 157.61308108689263,238.6933584867802 164.07266503956635,248.9379886938259 163.380566759035,252.00776662750286 156.95393986720592,261.5739284189185 155.07538739126176,265.35750821011607 155.5697433060268,266.0 156.7561975013232,262.3592020906508 163.31465263711289,253.32847914355807 164.0397079787217,249.25924542205757 161.69975664885715,244.76163212157553 155.20721563510597,234.73109233475407 147.92370515782386,220.7379688952933 146.1110668038018,218.2034574932477 144.99052673054393,215.27625904456363" stroke="#4dd2ff" stroke-linecap="round" stroke-linejoin="round" stroke-width="0.5"><title>2018-08-07 10.0km</title></polyline></svg>