<?xml version="1.0" encoding="utf-8" ?>
<svg baseProfile="full" height="200mm" version="1.1" viewBox="0,0,200,200" width="200mm" xmlns="http://www.w3.org/2000/svg" xmlns:ev="http://www.w3.org/2001/xml-events" xmlns:xlink="http://www.w3.org/1999/xlink"><defs /><rect fill="#1a1a1a" height="200" width="200" x="0" y="0" /><text alignment-baseline="middle" fill="#e1ed5e" style="dominant-baseline: central; font-size:9.0px; font-family:Arial;" text-anchor="middle" x="100.0" y="100.0">2018</text><line stroke="#e1ed5e" stroke-width="0.3" x1="100.0" x2="100.0" y1="15.0" y2="10.0" /><path d="M 100.0 14.0 a86.0,86.0 0 0,1 42.46469731375804,11.215312516191453" fill="none" id="id1" stroke="none" /><text fill="#e1ed5e" style="font-size:6.75px; font-family:Arial;" text-anchor="middle"><textPath startOffset="22.20632615414155" xlink:href="#id1">January</textPath></text><line stroke="#e1ed5e" stroke-width="0.3" x1="143.23703022742887" x2="145.7803849466894" y1="26.81831364943548" y2="22.513508569990506" /><path d="M 143.74570117128098 25.957352633546492 a86.0,86.0 0 0,1 28.547481713284135,27.462654790039103" fill="none" id="id2" stroke="none" /><text fill="#e1ed5e" style="font-size:6.75px; font-family:Arial;" text-anchor="middle"><textPath startOffset="19.985693538727396" xlink:href="#id2">February</textPath></text><line stroke="#e1ed5e" stroke-width="0.3" x1="172.23445277983987" x2="176.4835382374775" y1="55.19839476539836" y2="52.563006222186495" /><path d="M 173.08426987136738 54.67131705675599 a86.0,86.0 0 0,1 12.851231095245387,41.99856678651699" fill="none" id="id3" stroke="none" /><text fill="#e1ed5e" style="font-size:6.75px; font-family:Arial;" text-anchor="middle"><textPath startOffset="22.20632615414155" xlink:href="#id3">March</textPath></text><path d="M 118.89224826269711 90.83032412892265 l 38.43376985852667 -18.654487661065616 a63.721710820554016,63.721710820554016 0 0,0 0.4704537684339049,0.9908956169910552 l -38.74918182080233 17.99014962843402" fill="#83ff25" stroke="none" /><line stroke="#e1ed5e" stroke-width="0.3" x1="184.98032266829074" x2="189.97916517819016" y1="98.17113171792111" y2="98.06355123074" /><path d="M 185.9800911702706 98.14961562048488 a86.0,86.0 0 0,1 -9.607161424134198,41.387399972396054" fill="none" id="id4" stroke="none" /><text fill="#e1ed5e" style="font-size:6.75px; font-family:Arial;" text-anchor="middle"><textPath startOffset="21.466115282336823" xlink:href="#id4">April</textPath></text><path d="M 118.81262510543309 109.33194174019688 l 28.265361031875912 14.020940774444078 a52.55182109582199,52.55182109582199 0 0,0 -0.40895659564920184,0.8069101609381573 l -28.01982576644044 -14.505405147084929" fill="#ffa80f" stroke="none" /><line stroke="#e1ed5e" stroke-width="0.3" x1="174.80103733775053" x2="179.2010983576182" y1="140.37084112569926" y2="142.7455964860345" /><path d="M 175.68104954172406 140.8457921977663 a86.0,86.0 0 0,1 -30.038265399797805,32.042727171017184" fill="none" id="id5" stroke="none" /><text fill="#e1ed5e" style="font-size:6.75px; font-family:Arial;" text-anchor="middle"><textPath startOffset="22.206326154141568" xlink:href="#id5">May</textPath></text><line stroke="#e1ed5e" stroke-width="0.3" x1="143.8653032363475" x2="146.44561519142675" y1="172.8068346515853" y2="177.08958963109032" /><path d="M 144.38136562736335 173.6633856474863 a86.0,86.0 0 0,1 -40.68145358897372,12.25698825130547" fill="none" id="id6" stroke="none" /><text fill="#e1ed5e" style="font-size:6.75px; font-family:Arial;" text-anchor="middle"><textPath startOffset="21.466115282336833" xlink:href="#id6">June</textPath></text><line stroke="#e1ed5e" stroke-width="0.3" x1="102.19456741930631" x2="102.32365962044197" y1="184.97166512339345" y2="189.96999836594603" /><path d="M 102.22038585953345 185.97133177190398 a86.0,86.0 0 0,1 -42.740103519485714,-10.115201625700543" fill="none" id="id7" stroke="none" /><text fill="#e1ed5e" style="font-size:6.75px; font-family:Arial;" text-anchor="middle"><textPath startOffset="22.20632615414155" xlink:href="#id7">July</textPath></text><line stroke="#e1ed5e" stroke-width="0.3" x1="58.666819895761336" x2="56.23545636021788" y1="174.27360380694188" y2="178.64263932499728" /><path d="M 58.180547188652646 175.14741091055294 a86.0,86.0 0 0,1 -31.652253787137756,-30.449443065178592" fill="none" id="id8" stroke="none" /><text fill="#e1ed5e" style="font-size:6.75px; font-family:Arial;" text-anchor="middle"><textPath startOffset="22.20632615414155" xlink:href="#id8">August</textPath></text><path d="M 89.7882731507175 118.34994917583269 l -12.006226227141996 21.574572480567774 a45.69031482052395,45.69031482052395 0 0,0 -0.6839431811233306,-0.38836078806238483 l 12.375818175186534 -21.364708526710757" fill="#ff1302" stroke="none" /><path d="M 89.4739219176387 118.17145234162733 l -17.1332535404705 29.577597442430918 a55.181612708421774,55.181612708421774 0 0,0 -0.817823371587114,-0.4831844632360939 l 17.639844783085994 -29.278294406901075" fill="#ffdd14" stroke="none" /><path d="M 87.95078237400918 117.19931262002967 l -27.021571361033153 38.571172647786995 a68.09459287694075,68.09459287694075 0 0,0 -0.9542084669018812,-0.6808024053283555 l 27.681507155783923 -38.10032598061442" fill="#3cff2e" stroke="none" /><path d="M 87.36589467227662 116.77436683061367 l -27.79873547023413 36.90852451432951 a67.20615625183419,67.20615625183419 0 0,0 -0.9180721665251942,-0.7039385886860131 l 28.429936365252814 -36.424546583816124" fill="#4aff2c" stroke="none" /><path d="M 86.79598089348748 116.32954008644616 l -29.3307990704083 36.27368722539162 a67.64843147453303,67.64843147453303 0 0,0 -0.8991760943638015,-0.7399607100645602 l 29.95084529331679 -35.763431396469876" fill="#43ff2d" stroke="none" /><path d="M 86.24171649860922 115.8653595955263 l -18.454484717125528 21.280782312542403 a49.16806173680463,49.16806173680463 0 0,0 -0.6346371012629475,-0.5599934538740511 l 18.818064171295063 -20.95996571689606" fill="#ff6108" stroke="none" /><path d="M 85.18274418774928 114.88116024355367 l -32.81584020987353 32.95736962887742 a67.50879036842825,67.50879036842825 0 0,0 -0.8164042954868131,-0.8270132410545102 l 33.378285130415875 -32.387615893842245" fill="#45ff2d" stroke="none" /><path d="M 83.72743513129214 113.27417163493432 l -33.63379659168724 27.436411671713152 a64.40494163791388,64.40494163791388 0 0,0 -0.6933716037849712,-0.8650876864796248 l 34.101086107527074 -26.853396151655268" fill="#78ff26" stroke="none" /><line stroke="#e1ed5e" stroke-width="0.3" x1="26.63291911575756" x2="22.317208475507996" y1="142.92168965132927" y2="145.44649492493687" /><path d="M 25.769776987707644 143.4266507060508 a86.0,86.0 0 0,1 -11.730757126820373,-40.83630448921669" fill="none" id="id9" stroke="none" /><text fill="#e1ed5e" style="font-size:6.75px; font-family:Arial;" text-anchor="middle"><textPath startOffset="21.46611528233685" xlink:href="#id9">September</textPath></text><path d="M 80.32549172779594 107.34259656027581 l -43.52457328904663 16.243525769390146 a67.4568682695512,67.4568682695512 0 0,0 -0.396632698088384,-1.0913628381737226 l 43.79773024814023 -15.491915134210306" fill="#46ff2c" stroke="none" /><path d="M 79.86692584326677 105.97154293290107 l -22.885350824023106 6.787878190696113 a44.87078910866465,44.87078910866465 0 0,0 -0.21325881627502571,-0.7423819163816823 l 22.998802277184236 -6.392938798809835" fill="#ff0000" stroke="none" /><path d="M 79.29508885075956 103.50808413554451 l -27.0107545315372 4.576498724296567 a48.395715010498364,48.395715010498364 0 0,0 -0.13209321337298635,-0.822544565766418 l 27.085529499271473 -4.110874928836934" fill="#ff5007" stroke="none" /><line stroke="#e1ed5e" stroke-width="0.3" x1="15.007084014347285" x2="10.007500721073583" y1="101.09737516637583" y2="101.16192664675087" /><path d="M 14.007167355692545 101.11028546245083 a86.0,86.0 0 0,1 10.666146001902534,-42.60595125391555" fill="none" id="id10" stroke="none" /><text fill="#e1ed5e" style="font-size:6.75px; font-family:Arial;" text-anchor="middle"><textPath startOffset="22.20632615414155" xlink:href="#id10">October</textPath></text><line stroke="#e1ed5e" stroke-width="0.3" x1="26.266209847984243" x2="21.928928074336255" y1="57.711370442889674" y2="55.22380399835377" /><path d="M 25.398753493254645 57.213857153982495 a86.0,86.0 0 0,1 29.58750427330803,-30.492523968695096" fill="none" id="id11" stroke="none" /><text fill="#e1ed5e" style="font-size:6.75px; font-family:Arial;" text-anchor="middle"><textPath startOffset="21.46611528233685" xlink:href="#id11">November</textPath></text><line stroke="#e1ed5e" stroke-width="0.3" x1="56.762969772571076" x2="54.21961505331055" y1="26.818313649435495" y2="22.513508569990535" /><path d="M 56.25429882871897 25.957352633546506 a86.0,86.0 0 0,1 42.265352541879196,-11.944610805530505" fill="none" id="id12" stroke="none" /><text fill="#e1ed5e" style="font-size:6.75px; font-family:Arial;" text-anchor="middle"><textPath startOffset="22.20632615414155" xlink:href="#id12">December</textPath></text><path d="M 89.63071344664047 81.73862282372117 l -22.883694702766263 -40.300533503786525 a67.34432526145173,67.34432526145173 0 0,0 1.0129738137042628,-0.5637188306029481 l 22.186596799989957 40.68846773194966" fill="#48ff2c" stroke="none" /><path d="M 93.94186890950719 79.89281104454417 l -18.17439327147842 -60.321566866367455 a84.0,84.0 0 0,0 1.3880391291063148,-0.4052066843252047 l 17.133363924648684 60.625471879611354" fill="#4dd2ff" stroke="none" /><path d="M 96.40284397218896 79.31037775812273 l -8.018411956293837 -46.1191877897009 a67.81105011300785,67.81105011300785 0 0,0 1.1517248131601103,-0.19004446253041624 l 7.223357936994841 46.250378515170944" fill="#41ff2d" stroke="none" /></svg>